<svg aria-hidden="true" style="position: absolute; width: 0; height: 0; overflow: hidden;" version="1.1" xmlns="http://www.w3.org/2000/svg" xmlns:xlink="http://www.w3.org/1999/xlink">
<defs>
<symbol id="icon-m" viewBox="0 0 39 32">
<path d="M38.857 4.815h-1.492c-0.554 0-1.338 0.787-1.338 1.29v18.256c0 0.504 0.784 1.192 1.338 1.192h1.492v4.334h-13.523v-4.334h2.83v-19.191h-0.139l-6.609 23.524h-5.117l-6.524-23.524h-0.165v19.191h2.83v4.334h-11.321v-4.334h1.45c0.597 0 1.381-0.687 1.381-1.192v-18.256c0-0.504-0.784-1.29-1.381-1.29h-1.45v-4.333h14.157l4.648 17.024h0.128l4.691-17.024h14.114v4.333z"></path>
</symbol>
<symbol id="icon-play" viewBox="0 0 29 32">
<path d="M26.853 12.151c2.984 1.711 2.984 5.988 0 7.699l-20.14 11.548c-2.984 1.711-6.713-0.428-6.713-3.849v-23.097c0-3.422 3.73-5.56 6.713-3.849l20.14 11.548z"></path>
</symbol>
<symbol id="icon-twitter" viewBox="0 0 41 32">
<path d="M38.932 4.207c-1.389 0.634-2.88 1.060-4.446 1.254 1.598-0.985 2.826-2.544 3.403-4.401-1.496 0.912-3.153 1.574-4.917 1.93-1.412-1.545-3.424-2.508-5.651-2.508-4.275 0-7.742 3.562-7.742 7.953 0 0.624 0.068 1.231 0.2 1.813-6.435-0.333-12.141-3.501-15.959-8.311-0.666 1.175-1.048 2.54-1.048 3.998 0 2.759 1.367 5.193 3.444 6.621-1.268-0.042-2.462-0.4-3.506-0.996v0.1c0 3.856 2.671 7.069 6.209 7.8-0.649 0.182-1.333 0.279-2.036 0.279-0.499 0-0.985-0.048-1.456-0.142 0.985 3.161 3.845 5.46 7.232 5.524-2.65 2.132-5.988 3.404-9.617 3.404-0.625 0-1.24-0.036-1.846-0.111 3.426 2.257 7.496 3.574 11.868 3.574 14.24 0 22.028-12.121 22.028-22.63 0-0.345-0.008-0.688-0.022-1.030 1.513-1.121 2.826-2.523 3.864-4.119z"></path>
</symbol>
<symbol id="icon-f" viewBox="0 0 17 32">
<path d="M10.647 32v-14.597h4.836l0.724-5.689h-5.56v-3.632c0-1.647 0.451-2.769 2.783-2.769l2.973-0.001v-5.088c-0.514-0.069-2.279-0.224-4.332-0.224-4.287 0-7.221 2.651-7.221 7.519v4.195h-4.848v5.689h4.848v14.597h5.798z"></path>
</symbol>
<symbol id="icon-telegram" viewBox="0 0 37 32">
<path d="M14.325 29.596c-1.078 0-0.895-0.389-1.266-1.371l-3.169-9.977 24.395-13.843z"></path>
<path d="M14.326 29.596c0.832 0 1.199-0.364 1.663-0.796l4.435-4.125-5.533-3.191z"></path>
<path d="M14.891 21.484l13.406 9.474c1.53 0.807 2.634 0.389 3.015-1.359l5.457-24.597c0.559-2.143-0.854-3.114-2.317-2.479l-32.043 11.818c-2.187 0.839-2.175 2.006-0.399 2.526l8.223 2.455 19.037-11.488c0.899-0.521 1.724-0.241 1.047 0.334z"></path>
</symbol>
<symbol id="icon-logo1" viewBox="0 0 129 32">
<path fill="#d6dae5" style="fill: var(--color4, #d6dae5)" d="M16.477 25.6h-0.006c0.191 0 0.281 0.182 0.191 0.366v0.091c-0.372 1.921-0.653 3.292-0.653 3.474-0.282 1.372-3.107 2.469-6.497 2.469s-6.215-1.097-6.496-2.469c0-0.183-0.282-1.554-0.659-3.474v-0.091c0-0.274 0.189-0.366 0.378-0.366 0.093 0 0.281 0.091 0.281 0.091s2.352 1.835 6.588 1.836c4.238 0 6.593-1.835 6.593-1.835s0.093-0.092 0.282-0.092zM35.59 21.121v-0.001c1.506 0.55 2.354 1.83 2.354 3.474v1.922c0 2.833-1.977 4.479-5.367 4.479h-7.72c-0.282 0-0.47-0.183-0.47-0.459v-17.916c0-0.275 0.189-0.459 0.47-0.459h7.155c3.578 0 5.273 1.37 5.273 4.112v1.919c0 1.373-0.471 2.287-1.695 2.928zM42.934 17.098l0.010-0.001c0.281 0 0.472 0.186 0.472 0.459v12.982c0 0.273-0.191 0.459-0.472 0.459h-2.925c-0.281 0-0.472-0.185-0.472-0.459v-12.981c0-0.275 0.191-0.459 0.472-0.459h2.915zM113.082 16.825c-3.95 0-5.93 1.919-5.93 5.484v3.566c0 3.657 1.98 5.394 6.121 5.394 1.698 0 3.487-0.273 4.994-0.824 0.189-0.091 0.376-0.273 0.281-0.548l-0.47-2.010c0-0.093-0.094-0.275-0.188-0.275-0.095-0.092-0.281-0.092-0.377-0.092-1.316 0.366-2.635 0.549-3.859 0.549-2.166 0-2.542-0.64-2.542-2.103v-0.459h7.25c0.281 0 0.472-0.182 0.472-0.456v-2.56c-0.095-3.84-1.884-5.67-5.743-5.67l-0.009 0.002zM61.396 27.978c-0.754 0-1.317 0-1.879-0.093v-7.046c0.848-0.371 1.978-0.732 2.824-0.732 1.131 0 1.602 0.459 1.602 1.464v4.108c0 1.555-0.377 2.286-2.543 2.286l-0.004 0.012zM128.338 28.252l0.002-0.003 0.281 1.919c0.096 0.273-0.093 0.459-0.281 0.546-0.849 0.278-2.165 0.459-2.919 0.459-2.73 0-4.050-1.278-4.050-3.747v-7.311h-1.598c-0.281 0-0.473-0.186-0.473-0.459v-2.101c0-0.275 0.192-0.459 0.473-0.459h1.598v-2.926c0-0.182 0.191-0.456 0.472-0.456l2.918-0.371c0.095 0 0.282 0 0.376 0.092 0.095 0.091 0.191 0.184 0.191 0.369v3.289h2.825c0.281 0 0.469 0.185 0.469 0.459v2.098c0 0.273-0.188 0.459-0.469 0.459h-2.824v6.86c0 0.732 0.281 1.005 1.035 1.005 0.377 0 0.847-0.098 1.412-0.185 0.095 0 0.282 0 0.376 0.098 0.094 0.093 0.184 0.274 0.184 0.366zM53.866 28.252l-0.010-0.003 0.281 1.919c0.095 0.273-0.090 0.459-0.281 0.546-0.844 0.278-2.161 0.459-2.914 0.459-2.731 0-4.047-1.278-4.047-3.747v-7.311h-1.6c-0.283 0-0.472-0.186-0.472-0.459v-2.101c0-0.275 0.191-0.459 0.472-0.459h1.606v-2.926c0-0.182 0.188-0.456 0.469-0.456l2.916-0.371c0.096 0 0.282 0 0.377 0.092s0.189 0.184 0.189 0.369v3.289h2.827c0.281 0 0.472 0.185 0.472 0.459v2.098c0 0.273-0.191 0.459-0.472 0.459h-2.824v6.86c0 0.732 0.282 1.005 1.035 1.005 0.377 0 0.94-0.098 1.412-0.185 0.094 0 0.282 0 0.376 0.098 0.094 0.093 0.188 0.274 0.188 0.366zM92.94 28.069h-0.003l0.378 2.103c0 0.273-0.095 0.457-0.377 0.546-0.942 0.276-2.166 0.459-3.201 0.459-4.424 0-6.213-1.555-6.213-5.395v-3.655c0-3.841 1.79-5.396 6.216-5.396 0.753 0 2.071 0.093 3.2 0.459 0.282 0.092 0.378 0.275 0.378 0.548l-0.379 2.194c0 0.183-0.094 0.275-0.187 0.366-0.094 0.091-0.282 0.091-0.376 0.091-1.035-0.182-2.070-0.273-2.543-0.273-1.789 0-2.354 0.457-2.354 2.012v3.747c0 1.554 0.471 2.010 2.354 2.010 0.848 0 1.695-0.091 2.543-0.273 0.094 0 0.282 0 0.376 0.092 0.093 0.091 0.188 0.274 0.188 0.366zM28.35 27.703h3.485c1.508 0 2.070-0.366 2.070-1.555v-1.376c0-1.191-0.468-1.649-1.789-1.649h-1.226c-0.281 0-0.472-0.185-0.472-0.459v-2.273c0-0.275 0.191-0.459 0.472-0.459h0.659c1.224 0 1.694-0.457 1.694-1.554v-1.647c0-0.64-0.183-1.28-1.688-1.28h-3.215v12.251h0.009zM81.262 17.098l-0.003-0.001c0.283 0 0.47 0.273 0.565 0.459v12.988c0 0.273-0.189 0.459-0.47 0.459h-2.168c-0.186 0-0.375-0.183-0.472-0.367l-0.188-0.732c-1.789 0.823-3.954 1.372-5.461 1.372-2.259 0-3.387-1.464-3.387-4.206v-9.508c0-0.273 0.189-0.459 0.47-0.459h2.923c0.281 0 0.472 0.185 0.472 0.459v9.135c0 0.641 0.284 0.914 0.945 0.914 0.844 0 2.352-0.548 3.387-1.097v-8.958c0-0.275 0.191-0.459 0.472-0.459h2.915zM9.607 10.517c-5.275 0-9.607 1.369-9.607 3.106 0 0.459 1.13 6.948 1.601 9.509 0.188 1.188 3.296 2.834 8.003 2.834 4.707 0 7.72-1.639 8.003-2.83 0.462-2.557 1.598-9.046 1.598-9.505-0.101-1.737-4.331-3.107-9.608-3.107l0.010-0.007zM9.607 23.863c-1.693 0-3.012-1.28-3.012-2.926 0-1.649 1.317-2.928 3.011-2.928s3.013 1.278 3.013 2.928c0 1.552-1.319 2.918-3.013 2.918l0.001 0.008zM106.586 30.171l-0.005-0.002c0.092 0.092 0.092 0.183 0 0.365 0 0.275-0.191 0.459-0.472 0.459h-3.2c-0.095 0-0.282-0.091-0.377-0.276l-3.763-6.216v5.943c0 0.273-0.191 0.459-0.472 0.459h-2.918c-0.281 0-0.472-0.185-0.472-0.459v-18.19c0-0.275 0.191-0.459 0.472-0.459h2.919c0.281 0 0.472 0.183 0.472 0.459v11.164l3.578-6.040c0.094-0.179 0.283-0.273 0.472-0.273h3.201c0.189 0 0.377 0.095 0.472 0.273 0.093 0.096 0.093 0.273 0 0.459l-3.769 6.119 3.861 6.216zM111.011 22.404v-0.459c0-1.366 0.658-1.913 2.070-1.913 1.601 0 1.884 0.732 1.884 1.922v0.459h-3.954v-0.010zM9.608 19.387c-0.832 0-1.507 0.662-1.507 1.464 0 0.81 0.677 1.464 1.507 1.464s1.507-0.654 1.507-1.464c0-0.802-0.677-1.464-1.507-1.464zM63.368 16.83c-1.412 0-2.918 0.369-3.859 0.732v-5.211c0-0.273-0.189-0.459-0.472-0.459h-2.919c-0.281 0-0.472 0.185-0.472 0.459v18.102c0 0.273 0.191 0.459 0.377 0.459 1.789 0.273 3.955 0.459 5.179 0.459 5.461 0 6.591-2.285 6.591-5.67v-3.933c0-3.289-1.507-4.938-4.425-4.938h0.001zM40.019 15.181l2.919-0.002c0.283 0 0.472-0.185 0.472-0.459v-2.467c0-0.183-0.189-0.459-0.472-0.459h-2.919c-0.281 0-0.472 0.183-0.472 0.459v2.469c0 0.275 0.191 0.459 0.472 0.459zM9.606 14.537c-3.391 0-6.12-0.546-6.12-1.278s2.73-1.28 6.12-1.28c3.389 0 6.12 0.549 6.12 1.278 0 0.732-2.732 1.281-6.12 1.281v-0.001zM47.36 7.316l-0.001 0.011h0.036c1.568-0.010 1.94-0.648 1.94-1.647 0-1.096-0.187-1.37-1.598-1.737-0.659-0.181-0.659-0.181-0.659-0.552 0-0.274 0-0.365 0.565-0.365 0.165 0 0.366 0.020 0.571 0.039l0.178 0.018c0.205 0.019 0.406 0.036 0.573 0.036h0.189l0.093-0.092 0.093-0.82c0-0.091-0.090-0.182-0.090-0.182-0.379-0.094-1.038-0.181-1.507-0.181-1.696 0-1.98 0.638-1.98 1.552 0 1.005 0.191 1.366 1.507 1.639 0.849 0.185 0.849 0.371 0.849 0.546 0 0.283 0 0.459-0.573 0.459-0.47 0-0.939-0.088-1.411-0.185h-0.188l-0.090 0.091-0.188 0.732c0 0.092 0 0.181 0.090 0.181 0.377 0.275 1.131 0.459 1.601 0.459zM43.214 7.316v0.012h0.036c1.568-0.010 1.94-0.649 1.94-1.649-0.093-1.095-0.282-1.369-1.694-1.737-0.661-0.183-0.661-0.183-0.661-0.55 0-0.273 0-0.361 0.573-0.361 0.167 0 0.368 0.016 0.573 0.035l0.177 0.017c0.205 0.019 0.406 0.039 0.57 0.039h0.101l0.092-0.091 0.092-0.824c0-0.091-0.094-0.182-0.187-0.182-0.378-0.094-1.037-0.181-1.507-0.181-1.695 0-1.98 0.638-1.98 1.552 0 1.005 0.191 1.366 1.507 1.639 0.846 0.185 0.846 0.371 0.846 0.546 0 0.283 0 0.459-0.563 0.459-0.47 0-0.942-0.088-1.411-0.185h-0.191l-0.101 0.091-0.189 0.732c0 0.092 0 0.181 0.094 0.181 0.659 0.275 1.319 0.459 1.882 0.459zM60.259 1.921l-0.001-0.005c0.844 0 1.216 0.458 1.317 1.555v3.571c0 0.091-0.101 0.182-0.191 0.182h-1.126c-0.094 0-0.188-0.092-0.188-0.181v-3.386c0-0.274-0.095-0.365-0.377-0.365-0.377 0-0.942 0.183-1.319 0.365v3.385c0 0.091-0.093 0.182-0.188 0.182h-1.13c-0.094 0-0.189-0.092-0.189-0.181v-4.847c0-0.091 0.094-0.182 0.189-0.182h0.847c0.094 0 0.188 0 0.188 0.092l0.094 0.275c0.753-0.275 1.506-0.459 2.072-0.459zM51.219 2.013l0.006-0.003c0.099 0 0.191 0.092 0.191 0.182v4.849c0 0.091-0.092 0.182-0.191 0.182h-1.136c-0.094 0-0.188-0.092-0.188-0.181v-4.847c0-0.091 0.093-0.182 0.187-0.182h1.131zM35.778 0.003l-0.004-0.003c0.093 0 0.188 0.092 0.188 0.182v6.859c0 0.091-0.094 0.182-0.185 0.182h-1.136c-0.090 0-0.181-0.092-0.181-0.181v-6.858c0-0.091 0.094-0.181 0.188-0.181h1.13zM28.622 0.276l2.251 6.567v0.185c-0.096 0.093-0.096 0.093-0.191 0.093h-1.226c-0.094 0-0.189 0-0.189-0.090l-0.378-1.28h-1.598c-0.094 0-0.188-0.092-0.188-0.092v-0.18l0.281-0.908c0 0 0.095-0.091 0.191-0.091h0.943l-0.66-2.286c0 0-0.094-0.091-0.187-0.091-0.188 0-0.188 0.090-0.188 0.090l-1.508 4.938c0 0-0.093 0.092-0.186 0.092h-1.226c-0.093 0-0.184 0-0.184-0.092v-0.181l2.171-6.675c0 0 0.094-0.092 0.189-0.092h1.694c0.094 0 0.188 0 0.188 0.092zM38.32 6.127v0.001h-0.008c-0.37-0.003-0.462-0.096-0.462-0.459 0-0.274 0.093-0.457 0.47-0.457h0.942v0.732c-0.188 0.091-0.469 0.183-0.942 0.183zM33.801 6.127l0.011 0.005 0.094 0.824c0 0.091 0 0.091-0.376 0.273-0.283 0.093-0.754 0.185-1.035 0.185-1.037 0-1.507-0.458-1.507-1.371v-2.742h-0.566c-0.094 0-0.191-0.093-0.191-0.185v-0.825c0-0.090 0.090-0.185 0.181-0.185h0.565v-1.093c0-0.088 0.093-0.185 0.188-0.185l1.13-0.185c0.094-0.088 0.189 0 0.189 0 0.094 0 0.094 0 0.094 0.091v1.28h1.035c0.094 0 0.188 0.092 0.188 0.182v0.732c0 0.092-0.093 0.182-0.189 0.182h-1.035v2.651c0 0.274 0.095 0.366 0.377 0.366 0.188 0 0.377 0 0.565-0.092h0.189c0.093 0 0.093 0 0.093 0.092zM53.855 6.127v0.001h-0.008c-0.37-0.003-0.462-0.096-0.462-0.459 0-0.274 0.094-0.457 0.47-0.457h0.942v0.732c-0.188 0.091-0.469 0.183-0.942 0.183zM38.602 1.921c-0.563 0-1.223 0.092-1.693 0.183-0.094 0-0.188 0.091-0.094 0.182l0.101 0.732c0 0.091 0 0.091 0.098 0.091h0.093c0.472-0.091 0.942-0.091 1.317-0.091 0.754 0 0.943 0.182 0.943 0.639v0.459h-1.136c-1.131 0-1.601 0.456-1.601 1.462s0.565 1.554 1.412 1.554c0.563 0 1.035-0.182 1.506-0.365v0.183c0 0.092 0.094 0.092 0.188 0.092h0.848c0.090 0 0.191-0.098 0.191-0.185v-3.112c0-1.371-0.563-1.829-2.163-1.829l-0.009 0.006zM54.044 1.921c-0.565 0-1.224 0.092-1.695 0.183-0.1 0-0.191 0.091-0.1 0.182l0.090 0.732c0 0.091 0 0.091 0.093 0.091h0.095c0.472-0.091 0.942-0.091 1.317-0.091 0.754 0 0.945 0.182 0.945 0.639v0.459h-1.122c-1.129 0-1.6 0.456-1.6 1.462s0.565 1.554 1.413 1.554c0.565 0 1.035-0.182 1.507-0.365l0.092 0.183c0 0.092 0.094 0.092 0.189 0.092h0.847c0.094 0 0.188-0.098 0.188-0.185v-3.112c-0.093-1.371-0.659-1.829-2.259-1.829v0.006zM51.22 0.002h-1.132c-0.093 0-0.187 0.092-0.187 0.182v0.914c0 0.088 0.093 0.176 0.188 0.176h1.136c0.099 0 0.191-0.094 0.191-0.185v-0.907c0-0.091-0.092-0.182-0.191-0.182l-0.005 0.002z"></path>
</symbol>
<symbol id="icon-logo2" viewBox="0 0 150 32">
<path fill="#d6dae5" style="fill: var(--color4, #d6dae5)" d="M19.472 8.345c-2.636-0.189-4.872 1.43-6.118 1.43-1.266 0-3.218-1.389-5.287-1.353-2.716 0.041-5.222 1.535-6.622 3.899-2.822 4.758-0.72 11.805 2.028 15.663 1.344 1.888 2.947 4.012 5.054 3.935 2.028-0.078 2.794-1.276 5.245-1.276 2.449 0 3.141 1.276 5.284 1.235 2.181-0.037 3.565-1.922 4.899-3.82 1.545-2.188 2.18-4.306 2.217-4.421-0.049-0.016-4.254-1.586-4.296-6.289-0.037-3.931 3.306-5.823 3.459-5.915-1.899-2.713-4.831-3.012-5.864-3.087zM124.811 23.702v0.416c0 4.106-3.093 7.779-9.299 7.779-6.189 0-9.868-3.773-9.868-10.367v-2.754c0-6.526 3.697-10.416 9.885-10.416 5.81 0 9.283 3.557 9.283 7.996v0.233h-4.66c0-2.253-1.478-4.256-4.59-4.256-3.318 0-4.986 2.153-4.986 6.443v2.754c0 4.34 1.652 6.361 5.020 6.361 3.353 0 4.556-1.837 4.556-4.189h4.66zM40.075 25.004h0.069l4.178-16.276h4.934l4.194 16.276h0.069l3.887-16.276h5.191l-6.516 22.787h-4.935l-4.315-15.576h-0.086l-4.316 15.576h-4.899l-6.533-22.787h5.192l3.884 16.276zM134.851 17.876h9.592v-9.148h4.883v22.787h-4.883v-9.716h-9.592v9.716h-4.864v-22.787h4.864v9.148zM102.497 8.728v3.939h-6.996v18.847h-4.849v-18.847h-6.98v-3.939h18.824zM76.211 8.728l7.547 22.786h-5.21l-1.673-5.743h-7.423l-1.7 5.743h-4.865l7.565-22.786h5.758zM75.858 22.267l-2.637-9.048h-0.051l-2.678 9.048h5.366zM17.739 5.92c-1.126 1.254-2.899 2.208-4.64 2.078-0.247-1.784 0.662-3.645 1.697-4.809 1.155-1.311 3.103-2.292 4.715-2.353 0.207 1.818-0.547 3.65-1.666 4.96l-0.052 0.062-0.054 0.061z"></path>
</symbol>
<symbol id="icon-logo3" viewBox="0 0 163 32">
<path fill="#d6dae5" style="fill: var(--color4, #d6dae5)" d="M160.44 27.933c1.106 0 1.987 0.874 1.987 1.969 0 1.107-0.881 1.969-1.997 1.969-1.105 0-2.002-0.861-2.002-1.969 0-1.095 0.897-1.969 2.002-1.969h0.010zM32.523 31.607h-5.474l-0.233-1.341c-2.501 1.341-4.732 1.56-6.201 1.56-4.017 0-6.153-2.599-6.153-6.196 0-4.242 2.494-5.758 6.954-5.758h4.536v-0.915c0-2.165-0.253-2.8-3.7-2.8h-5.598l0.55-5.315h6.141c7.532 0 9.184 2.313 9.184 8.16v12.607h-0.005zM114.077 23.272c0 4.331-1.842 8.532-9.554 8.532-7.719 0-9.597-4.201-9.597-8.532v-4.184c0-4.331 1.875-8.532 9.595-8.532 7.73 0 9.58 4.201 9.58 8.534v4.183l-0.023-0.002zM135.107 23.272c0 4.331-1.845 8.532-9.554 8.532-7.722 0-9.6-4.201-9.6-8.532v-4.184c0-4.331 1.875-8.532 9.597-8.532 7.704 0 9.554 4.201 9.554 8.534v4.183l0.003-0.002zM160.43 28.243c-0.886 0-1.622 0.738-1.622 1.656 0 0.935 0.736 1.668 1.632 1.668 0.9 0.025 1.622-0.714 1.622-1.649 0-0.91-0.722-1.654-1.622-1.654h-0.010v-0.022zM10.079 31.565h-6.564v-15.405h-3.284v-5.315h3.282v-3.187c0-4.331 1.85-6.91 7.116-6.91h4.384v5.315h-2.737c-2.053 0-2.19 0.738-2.19 2.126l-0.025 2.658h4.967l-0.583 5.315h-4.382v15.405l0.015-0.002zM160.053 31.048h-0.36v-2.197c0.203-0.025 0.38-0.049 0.659-0.049 0.346 0 0.572 0.067 0.71 0.162 0.136 0.099 0.202 0.246 0.202 0.455 0 0.288-0.192 0.463-0.43 0.534v0.017c0.192 0.035 0.328 0.207 0.38 0.532 0.050 0.34 0.102 0.473 0.136 0.541h-0.38c-0.050-0.069-0.109-0.271-0.152-0.556-0.051-0.283-0.203-0.386-0.487-0.386h-0.253v0.945l-0.025 0.002zM160.053 29.83h0.26c0.296 0 0.548-0.106 0.548-0.377 0-0.192-0.142-0.384-0.548-0.384-0.117 0-0.202 0.007-0.26 0.017v0.743zM21.028 25.548c0 1.162 0.568 1.764 1.815 1.764 1.343 0 2.134-0.423 3.112-0.861v-2.326h-2.93c-1.389 0-1.997 0.246-1.997 1.42v0.002zM83.732 15.862c-1.343 0-2.306 0.418-3.285 0.861v9.794c0.938 0.086 1.475 0.086 2.367 0.086 3.219 0 3.655-1.427 3.655-3.421v-4.686c0-1.467-0.507-2.65-2.737-2.65v0.015zM104.5 15.862c-2.235 0-3.008 1.181-3.008 2.633v5.365c0 1.476 0.773 2.658 3.008 2.658 2.23 0 3.006-1.181 3.006-2.658v-5.365c0-1.467-0.786-2.65-3.016-2.65l0.010 0.017zM51.135 16.527c-3.406-0.566-4.384-0.689-6.021-0.689-2.945 0-3.834 0.622-3.834 3.051v4.577c0 2.424 0.887 3.051 3.834 3.051 1.64 0 2.615-0.123 6.021-0.689v5.178c-2.983 0.652-4.927 0.822-6.569 0.822-7.050 0-9.853-3.593-9.853-8.785v-3.716c0-5.202 2.803-8.802 9.853-8.802 1.642 0 3.586 0.172 6.569 0.824v5.178zM71.689 23.048h-12.043v0.418c0 2.424 0.887 3.051 3.832 3.051 2.648 0 4.258-0.123 7.659-0.689v5.178c-3.277 0.652-4.985 0.822-8.204 0.822-7.045 0-9.833-3.593-9.833-8.785v-4.257c0-4.545 2.078-8.268 9.301-8.268 7.235 0 9.301 3.679 9.301 8.268v4.257l-0.013 0.005zM125.527 15.862c-2.23 0-3.003 1.181-3.003 2.641v5.372c0 1.476 0.773 2.658 3.003 2.658s3.016-1.181 3.016-2.658v-5.374c0-1.469-0.786-2.653-3.016-2.653v0.015zM156.691 31.562h-7.114l-6.022-9.745v9.745h-6.563v-29.227l6.563-1.058v18.813l6.019-9.253h7.097l-6.577 10.089 6.571 10.631 0.025 0.005zM62.382 15.321c-2.23 0-2.737 1.181-2.737 2.658v0.819h5.474v-0.827c0-1.452-0.507-2.643-2.737-2.643v-0.007zM93.037 23.146c0 5.020-1.495 8.687-10.467 8.687-3.234 0-5.135-0.281-8.708-0.812v-28.691l6.564-1.058v10.033c1.419-0.512 3.257-0.77 4.929-0.77 6.564 0 7.654 2.855 7.654 7.439v5.192l0.028-0.020z"></path>
</symbol>
<symbol id="icon-logo4" viewBox="0 0 150 32">
<path fill="#5982e7" style="fill: var(--color5, #5982e7)" d="M105.295 20.993c-2.168-0.543-2.168-0.566-2.168-1.721 0-0.778 0.079-1.149 1.865-1.149 1.226 0 3.031 0.204 4.192 0.401 0.159 0.023 0.322-0.011 0.452-0.113 0.131-0.091 0.215-0.238 0.233-0.396l0.331-2.587c0.023-0.294-0.163-0.566-0.466-0.634-1.352-0.301-3.218-0.498-4.756-0.498-5.386 0-6.482 1.97-6.482 4.929 0 3.252 0.618 4.347 4.738 5.32 2.714 0.634 2.714 1.104 2.714 1.885 0 1.026-0.093 1.381-1.865 1.381-1.432 0-3.087-0.215-4.542-0.593-0.163-0.039-0.326-0.014-0.466 0.068-0.14 0.088-0.24 0.226-0.27 0.385l-0.445 2.469c-0.054 0.283 0.117 0.56 0.396 0.649 1.59 0.498 3.87 0.838 5.544 0.838 5.209 0 6.272-2.128 6.272-5.298 0-3.509-0.639-4.166-5.283-5.359l0.007 0.023v0.001zM91.788 20.993c-2.168-0.543-2.168-0.566-2.168-1.721 0-0.778 0.079-1.149 1.865-1.149 1.224 0 3.031 0.204 4.192 0.401 0.158 0.023 0.322-0.011 0.452-0.113 0.131-0.091 0.215-0.238 0.233-0.396l0.331-2.587c0.037-0.294-0.158-0.566-0.455-0.634-1.329-0.301-3.194-0.498-4.733-0.498-5.372 0-6.482 1.97-6.482 4.929 0 3.252 0.63 4.347 4.747 5.32 2.714 0.634 2.714 1.104 2.714 1.885 0 1.026-0.093 1.381-1.865 1.381-1.434 0-3.089-0.215-4.547-0.593-0.163-0.039-0.326-0.014-0.466 0.068-0.14 0.088-0.24 0.226-0.27 0.385l-0.466 2.456c-0.047 0.283 0.117 0.562 0.403 0.65 1.585 0.498 3.866 0.838 5.542 0.838 5.2 0 6.272-2.128 6.272-5.298 0-3.509-0.648-4.166-5.293-5.359l-0.007 0.023v0.012zM43.979 9.101c-0.077-0.24-0.303-0.403-0.564-0.403h-5.522c-0.257 0-0.49 0.162-0.567 0.4l-6.968 21.439c-0.054 0.17-0.023 0.362 0.089 0.509s0.289 0.234 0.478 0.234h3.8c0.263 0 0.494-0.17 0.569-0.408l4.8-15.78c0 0 0.128-0.396 0.56-0.396 0.443 0 0.559 0.408 0.559 0.408l2.227 7.482h-2.984c-0.256 0-0.49 0.173-0.559 0.419l-0.863 2.966c-0.047 0.17 0 0.362 0.093 0.498 0.116 0.144 0.303 0.226 0.49 0.226h5.094l1.341 4.18c0.075 0.238 0.303 0.401 0.56 0.401h3.8c0.187 0 0.368-0.090 0.48-0.238 0.117-0.149 0.149-0.34 0.093-0.514l-6.975-21.462-0.023 0.036-0.007 0.002zM116.607 14.64h-3.497c-0.326 0-0.59 0.257-0.59 0.574v15.531c0 0.317 0.266 0.58 0.592 0.58h3.497c0.326 0 0.591-0.257 0.591-0.577v-15.527c0-0.317-0.257-0.569-0.583-0.569l-0.012-0.009 0.001-0.001zM67.015 8.279h-3.497c-0.326 0-0.59 0.257-0.59 0.574v21.893c0 0.317 0.266 0.58 0.592 0.58h3.497c0.326 0 0.59-0.257 0.59-0.577v-21.889c0-0.317-0.257-0.569-0.583-0.569l-0.009-0.009v-0.001zM145.636 14.307c-1.848 0-4.372 0.62-6.505 1.594l-0.257-0.838c-0.069-0.249-0.303-0.413-0.566-0.413h-2.587c-0.326 0-0.595 0.257-0.595 0.574v15.531c0 0.317 0.256 0.577 0.582 0.577h3.498c0.326 0 0.594-0.256 0.594-0.577v-10.754c1.26-0.623 3.031-1.268 4.084-1.268 0.787 0 1.079 0.288 1.079 1.053v10.958c0 0.322 0.269 0.577 0.595 0.577h3.497c0.326 0 0.59-0.256 0.59-0.577v-11.402c0-3.334-1.353-5.026-4.013-5.026h-0.003l0.005-0.008zM13.447 23.54c-0.093-0.090-0.226-0.187-0.455-0.187-0.291 0-0.462 0.195-0.527 0.29-1.632 2.422-2.471 4.709-2.588 7.007-0.004 0.17 0.062 0.34 0.181 0.464 0.117 0.136 0.291 0.204 0.466 0.204h3.875c0.338 0 0.618-0.249 0.641-0.566 0.093-1.109 0.443-2.219 1.096-3.373 0.221-0.408 0.047-0.781-0.082-0.943-0.641-0.815-1.426-1.675-2.591-2.859l-0.005-0.023-0.012-0.014zM78.354 25.193v2c-0.571 0.317-1.62 0.747-2.891 0.747-1.084 0-1.422-0.317-1.422-1.381 0-1.019 0.21-1.34 1.492-1.34h2.821v-0.026zM128.040 25.193v2c-0.582 0.317-1.632 0.747-2.891 0.747-1.084 0-1.422-0.317-1.422-1.381 0-1.019 0.21-1.34 1.492-1.34h2.821v-0.026zM60.553 28.006c-0.023-0.163-0.117-0.306-0.257-0.396s-0.305-0.118-0.469-0.079c-0.63 0.149-1.212 0.231-1.679 0.231-0.863 0-1.259-0.362-1.259-1.177v-8.23h3.392c0.326 0 0.592-0.26 0.592-0.577v-2.57c0-0.317-0.268-0.577-0.595-0.577h-3.381v-3.95c0-0.17-0.079-0.325-0.21-0.436-0.128-0.11-0.303-0.158-0.466-0.136l-3.497 0.475c-0.294 0.037-0.513 0.28-0.513 0.566v3.486h-1.908c-0.326 0-0.592 0.257-0.592 0.574v2.581c0 0.317 0.28 0.58 0.606 0.58h1.902v8.75c0 3.008 1.625 4.528 4.833 4.528 0.909 0 2.462-0.204 3.474-0.543 0.268-0.091 0.434-0.354 0.389-0.634l-0.379-2.456 0.012-0.017 0.002 0.007zM76.010 14.315c-1.772 0-3.926 0.272-5.491 0.69-0.303 0.079-0.49 0.357-0.443 0.645l0.403 2.468c0.023 0.151 0.117 0.286 0.245 0.377 0.131 0.091 0.294 0.113 0.452 0.091 1.453-0.272 2.954-0.43 4.225-0.43 2.518 0 2.924 0.521 2.924 2.173v1.449h-3.731c-3.577 0-5.106 1.426-5.106 4.8 0 3.215 1.679 5.049 4.593 5.049 1.695 0 3.388-0.453 4.81-1.291l0.152 0.528c0.070 0.249 0.303 0.419 0.571 0.419h2.84c0.326 0 0.59-0.26 0.59-0.577v-10.324c0-4.437-1.9-6.090-7.018-6.090l-0.021 0.011 0.005 0.013zM125.688 14.315c-1.772 0-3.917 0.272-5.479 0.69-0.291 0.079-0.478 0.357-0.426 0.645l0.408 2.468c0.023 0.151 0.117 0.286 0.245 0.377 0.133 0.091 0.296 0.113 0.455 0.091 1.445-0.272 2.938-0.43 4.22-0.43 2.518 0 2.915 0.521 2.915 2.173v1.449h-3.731c-3.591 0-5.12 1.426-5.12 4.8 0 3.215 1.675 5.049 4.593 5.049 1.694 0 3.381-0.453 4.803-1.291l0.151 0.528c0.070 0.249 0.303 0.419 0.571 0.419h2.822c0.326 0 0.594-0.26 0.594-0.577v-10.324c0-4.437-1.901-6.090-7.018-6.090l0.006 0.011-0.009 0.013zM29.169 8.383c-0.117-0.085-0.251-0.128-0.388-0.128-0.093 0-0.163 0.014-0.233 0.041-1.399 0.514-2.798 0.906-4.080 1.193-0.256 0.068-0.485 0.249-0.56 0.475-0.933 2.49-3.334 4.867-5.829 7.335-0.093 0.091-0.233 0.226-0.466 0.226s-0.373-0.113-0.466-0.211c-2.518-2.479-4.896-4.834-5.829-7.324-0.093-0.226-0.303-0.408-0.56-0.475-1.282-0.294-2.705-0.691-4.080-1.2-0.070-0.023-0.159-0.034-0.233-0.034-0.14 0-0.275 0.045-0.389 0.128-0.177 0.125-0.268 0.34-0.247 0.543 0.21 2.067 1.061 4.087 2.576 6.203 1.434 1.992 3.287 3.837 5.094 5.619 3.311 3.283 6.447 6.384 6.724 9.984 0.023 0.321 0.303 0.573 0.634 0.573h3.894c0.175 0 0.345-0.068 0.466-0.192s0.186-0.29 0.175-0.46c-0.124-2.403-1.056-4.811-2.851-7.361-0.373-0.532-0.769-1.053-1.193-1.562-0.17-0.204-0.098-0.464 0.033-0.591l0.396-0.389c1.804-1.777 3.661-3.622 5.095-5.615 1.516-2.111 2.355-4.12 2.57-6.186 0.023-0.209-0.075-0.43-0.247-0.558l0.012-0.017-0.017-0.018zM17.628 10.239c1.22 0 1.929-0.076 2.177-0.076 0.28 0 0.583 0.226 0.583 0.566 0 0.091-0.023 0.158-0.047 0.226-0.163 0.417-0.909 1.929-2.285 3.226-0.163 0.145-0.326 0.172-0.443 0.172s-0.303-0.027-0.459-0.172c-1.376-1.297-2.112-2.807-2.273-3.231-0.023-0.068-0.047-0.136-0.047-0.238 0-0.328 0.287-0.577 0.588-0.577 0.249 0 0.956 0.068 2.178 0.068h0.005l0.023 0.023 0.001 0.012zM116.605 8.284h-3.488c-0.327 0-0.592 0.249-0.592 0.566v2.988c0 0.317 0.266 0.575 0.592 0.575h3.497c0.326 0 0.591-0.249 0.591-0.566v-3.012c0-0.317-0.265-0.572-0.591-0.572l-0.009 0.027v-0.007zM34.66 1.155c-0.155-0.204-0.396-0.317-0.653-0.317-0.132 0-0.262 0.027-0.373 0.091-4.78 2.536-10.314 3.878-16.012 3.88-5.696 0-11.231-1.345-16.006-3.883-0.117-0.068-0.245-0.091-0.373-0.091-0.256 0-0.501 0.113-0.653 0.317-0.226 0.272-0.233 0.77 0.152 1.064 2.39 1.721 5.027 3.079 7.834 4.007 2.914 0.951 5.955 1.449 9.046 1.449 3.094 0 6.137-0.498 9.047-1.449 2.809-0.928 5.447-2.287 7.841-4.007 0.385-0.294 0.373-0.792 0.152-1.087v0.025h-0.001z"></path>
</symbol>
<symbol id="icon-logo5" viewBox="0 0 129 32">
<path fill="#d6dae5" style="fill: var(--color4, #d6dae5)" d="M116.792 19.461c0-2.542-1.070-5.484-4.399-9.586l-8.030-9.876h-11.179l6.365 6.929c1.072 1.155 2.438 2.194 2.438 2.194-1.548-0.866-3.507-1.212-5.055-1.212-3.686 0-7.433 0.751-10.763 2.541-3.568 1.905-5.949 5.081-5.949 9.298 0 3.233 1.489 5.717 3.392 7.621 4.281 4.16 12.073 4.563 14.928 4.563 4.223 0 10.826-0.925 14.57-4.216 2.202-1.963 3.689-4.677 3.689-8.256l-0.004-0.001zM129.103 8.546h-9.694v22.637h9.694v-22.637zM49.411 31.183l-21.411-31.183h-12.013l3.32 3.811-18.841 27.373h10.824l3.229-5.139h20.415l3.296 5.137 11.181 0.002zM77.779 21.713v-13.166h-9.395v10.106c0 2.889-0.121 3.695-0.298 4.445-0.653 2.079-2.915 3.002-5.236 3.002-3.211 0-4.698-1.213-5.291-3.119-0.181-0.634-0.238-1.325-0.297-2.020-0.060-0.749 0-1.558 0-2.425v-9.989h-9.515v13.223c0 2.947 1.010 5.14 2.675 6.643 2.854 2.713 7.672 3.523 12.133 3.523 5.413 0 9.578-0.751 12.55-3.581 1.548-1.444 2.677-3.349 2.677-6.641h-0.003zM107.516 19.749c0 2.366-1.606 4.157-3.628 5.139-1.664 0.867-3.628 1.097-5.353 1.097s-3.747-0.345-5.412-1.154c-2.022-0.981-3.568-2.887-3.568-4.967 0-2.482 1.962-4.445 4.281-5.428 1.427-0.636 3.153-0.867 4.519-0.867 1.309 0 3.213 0.173 4.698 0.751 2.677 1.098 4.462 3.175 4.462 5.429zM31.159 19.959h-12.939l6.448-10.33 6.491 10.33z"></path>
</symbol>
</defs>
</svg>
